<?xml version="1.0" standalone="no"?>
<!DOCTYPE svg PUBLIC "-//W3C//DTD SVG 20010904//EN"
 "http://www.w3.org/TR/2001/REC-SVG-20010904/DTD/svg10.dtd">
<svg version="1.0" xmlns="http://www.w3.org/2000/svg"
 width="1536.000000pt" height="1024.000000pt" viewBox="0 0 1536.000000 1024.000000"
 preserveAspectRatio="xMidYMid meet">

<g transform="translate(0.000000,1024.000000) scale(0.100000,-0.100000)"
fill="#ffffff" stroke="none">
<path d="M6040 7562 l0 -88 104 -17 c192 -33 281 -78 355 -182 33 -44 36 -56
36 -115 0 -89 -20 -132 -434 -915 -189 -357 -367 -695 -396 -750 -29 -55 -187
-352 -350 -660 -522 -983 -543 -1019 -662 -1145 -100 -107 -228 -164 -395
-178 l-83 -7 -3 -92 -3 -93 706 0 705 0 0 90 0 89 -32 5 c-18 3 -67 10 -108
16 -96 13 -177 53 -204 100 -17 29 -21 52 -21 148 l0 114 200 394 200 394 496
-3 496 -2 -8 -30 c-4 -16 -10 -255 -13 -530 -9 -824 -35 -1032 -157 -1265 -69
-132 -159 -215 -303 -280 -157 -71 -367 -98 -524 -67 -52 10 -75 11 -80 3 -9
-14 -8 -234 2 -243 12 -12 141 -22 293 -22 372 -2 660 96 944 321 356 281 533
640 580 1178 5 69 13 477 16 908 l6 782 996 0 996 0 -2 -727 c-2 -405 -7 -766
-13 -813 -13 -114 -51 -190 -130 -264 -76 -70 -148 -94 -302 -103 l-108 -6 0
-94 0 -93 960 0 960 0 0 93 0 94 -57 2 c-274 9 -396 80 -465 272 l-23 64 1
1635 c1 1515 2 1639 18 1695 50 172 166 261 366 280 36 3 86 8 113 11 l47 6 0
89 0 89 -959 0 -958 0 -2 -89 -2 -89 68 -7 c272 -26 347 -60 427 -197 56 -95
56 -102 56 -860 l0 -698 -26 10 c-16 6 -392 10 -1003 10 l-977 0 -3 633 c-2
635 3 764 34 873 38 133 108 176 357 217 l128 21 0 88 0 88 -930 0 -930 0 0
-88z m585 -1091 c4 -7 8 -1057 5 -1451 0 -13 -50 -15 -402 -13 -222 2 -403 4
-403 5 1 4 400 770 503 963 142 268 275 505 283 505 4 0 10 -4 14 -9z"/>
</g>
</svg>